<?xml version="1.0" encoding="UTF-8" standalone="no" ?>
<!DOCTYPE svg PUBLIC "-//W3C//DTD SVG 1.1//EN" "http://www.w3.org/Graphics/SVG/1.1/DTD/svg11.dtd">
<svg xmlns="http://www.w3.org/2000/svg" xmlns:xlink="http://www.w3.org/1999/xlink" version="1.1" width="144" height="144" viewBox="0 0 144 144" xml:space="preserve">
<desc>Created with Fabric.js 5.3.0</desc>
<defs>
</defs>
<g transform="matrix(0.9160000697 0 0 0.9160000697 72 72)" id="WJaI8eY-hbp43aE2VURGH"  >
<path style="stroke: rgb(12,158,31); stroke-width: 0; stroke-dasharray: none; stroke-linecap: butt; stroke-dashoffset: 0; stroke-linejoin: miter; stroke-miterlimit: 4; fill: rgb(0,0,0); fill-rule: nonzero; opacity: 1;" vector-effect="non-scaling-stroke"  transform=" translate(0, 0)" d="M -78.60261 -45.25435 C -78.60261 -63.67209 -63.67208 -78.60262 -45.25434 -78.60262 L 45.25435 -78.60262 L 45.25435 -78.60262 C 63.67209 -78.60262 78.60262 -63.672090000000004 78.60262 -45.25435 L 78.60262 45.25434 L 78.60262 45.25434 C 78.60262 63.672079999999994 63.672090000000004 78.60261 45.25435 78.60261 L -45.25434 78.60261 L -45.25434 78.60261 C -63.672079999999994 78.60261 -78.60261 63.67208 -78.60261 45.25434 z" stroke-linecap="round" />
</g>
<g transform="matrix(0.2705598109 0 0 0.2697294004 71.5 72)" id="3L0HmW60TipG0ksCjQCfQ"  >
<linearGradient id="SVGID_4" gradientUnits="userSpaceOnUse" gradientTransform="matrix(1 0 0 1 -249.9930717709 -249.9899999556)"  x1="0.18019256018864577" y1="1.3331796403421556" x2="2.4861667204956657" y2="1.3331796403421556">
<stop offset="0%" style="stop-color:rgb(94,23,235);stop-opacity: 1"/>
<stop offset="51%" style="stop-color:rgb(82,113,255);stop-opacity: 1"/>
<stop offset="100%" style="stop-color:rgb(56,182,255);stop-opacity: 1"/>
</linearGradient>
<path style="stroke: none; stroke-width: 1; stroke-dasharray: none; stroke-linecap: butt; stroke-dashoffset: 0; stroke-linejoin: miter; stroke-miterlimit: 4; fill: url(#SVGID_4); fill-rule: nonzero; opacity: 1;" vector-effect="non-scaling-stroke"  transform=" translate(0, 0)" d="M 101.29693 114.93 C 68.97693000000001 114.93 37.816930000000006 100 15.81693 73.93 C -2.54307 52.21000000000001 -7.673069999999999 27.730000000000004 -12.63307 4.050000000000011 C -15.92307 -11.629999999999988 -19.02307 -26.44999999999999 -25.84307 -39.94999999999999 C -40.68307 -69.38999999999999 -69.59307 -87.67999999999998 -101.28307 -87.67999999999998 C -141.35829 -87.68105999999997 -176.33274 -60.50750999999998 -186.23624 -21.67525999999998 C -196.13974000000002 17.15699000000002 -178.45090000000002 57.761420000000015 -143.26994000000002 76.95315000000002 C -108.08897000000002 96.14489000000002 -64.37280000000003 89.03780000000002 -37.08307000000002 59.68999000000002 C -36.86307000000002 59.44999000000002 -36.64307000000002 59.219990000000024 -36.43307000000002 58.97999000000002 C -33.18754000000002 55.25398000000002 -28.179590000000022 53.57634000000002 -23.34449000000002 54.595370000000024 C -18.50939000000002 55.614400000000025 -14.604480000000022 59.170480000000026 -13.138770000000022 63.88941000000003 C -11.673060000000023 68.60834000000003 -12.876130000000023 73.75097000000002 -16.283070000000023 77.32999000000002 L -17.133070000000025 78.24999000000003 C -52.906530000000025 116.71788000000002 -110.21054000000004 126.03167000000002 -156.32537000000002 100.87332000000002 C -202.44019000000003 75.71497000000002 -225.62539000000004 22.489570000000015 -212.64257000000003 -28.41195999999998 C -199.65974000000003 -79.31348999999997 -153.81420000000003 -114.93206999999998 -101.28308000000004 -114.93000999999998 C -59.28308000000004 -114.93000999999998 -21.013080000000045 -90.93000999999998 -1.5030800000000397 -52.22000999999998 C 6.91691999999996 -35.520009999999985 10.49691999999996 -18.22000999999998 14.03691999999996 -1.530009999999983 C 18.50691999999996 19.769990000000018 22.71691999999996 39.88999000000002 36.63691999999996 56.34999000000002 C 53.44691999999996 76.24999000000003 77.01691999999997 87.65999000000002 101.29691999999996 87.65999000000002 C 141.00218999999996 87.66170000000002 175.75172999999995 60.97836000000002 186.00004999999996 22.618470000000016 C 196.24836999999997 -15.74140999999998 179.43662999999995 -56.199989999999985 145.02087999999995 -76.00062999999999 C 110.60513999999995 -95.80126999999999 67.17844999999996 -90.00007 39.166909999999945 -61.86000999999999 C 33.823049999999945 -56.742699999999985 25.372509999999945 -56.82321999999999 20.127139999999944 -62.04143999999999 C 14.881769999999943 -67.25965999999998 14.757389999999944 -75.70966999999999 19.846909999999944 -81.08000999999999 C 56.565709999999946 -117.96230999999999 113.48732999999996 -125.56415999999999 158.59788999999995 -99.61012999999998 C 203.70844999999994 -73.65609999999998 225.74578999999994 -20.62578999999998 212.31566999999995 29.65549000000003 C 198.88554999999997 79.93676000000002 153.34087999999997 114.91592000000003 101.29690999999995 114.91999000000003 z" stroke-linecap="round" />
</g>
</svg>